<?xml version="1.0" encoding="UTF-8"?>
<svg id="Livello_2" data-name="Livello 2" xmlns="http://www.w3.org/2000/svg" viewBox="0 0 47.24 47.23">
  <defs>
    <style>
      .cls-1 {
        fill: #fffaf6;
      }
    </style>
  </defs>
  <g id="Homepage">
    <g>
      <path class="cls-1" d="M33.94,47.23H13.34c-2.26,0-4.39-.57-6.36-1.57C2.38,43.31,0,38.65,0,33.5V13.48c0-2.08.42-4.01,1.23-5.89C3.38,2.61,8.27,0,13.65,0l20.42.02c2.39,0,4.66.65,6.71,1.82,4.16,2.37,6.46,6.89,6.46,11.66v20.29c0,4.89-2.31,9.46-6.69,11.76-2.02,1.06-4.21,1.67-6.61,1.67ZM42.41,37.18c.45-1.19.65-2.37.65-3.68V13.58c0-1.75-.45-3.36-1.27-4.85-1.61-2.94-4.69-4.35-8.02-4.36H13.76c-3.66,0-7.01,1.54-8.49,4.94-.57,1.32-.88,2.67-.88,4.16v20.23c0,1.35.26,2.59.71,3.81.76,2.03,2.23,3.58,4.22,4.44,1.31.57,2.66.91,4.14.91h20.31c3.83,0,7.28-2.05,8.64-5.68Z"/>
      <g>
        <circle class="cls-1" cx="36.29" cy="11.05" r="2.76"/>
        <path class="cls-1" d="M35.8,23.54c0,6.73-5.46,12.19-12.19,12.19s-12.19-5.46-12.19-12.19,5.46-12.19,12.19-12.19,12.19,5.46,12.19,12.19ZM31.43,23.53c0-4.31-3.49-7.8-7.8-7.8s-7.8,3.49-7.8,7.8,3.49,7.8,7.8,7.8,7.8-3.49,7.8-7.8Z"/>
      </g>
    </g>
  </g>
</svg>